<svg width="32" height="32" viewBox="0 0 32 32" fill="none" xmlns="http://www.w3.org/2000/svg">
<path d="M28.0001 18.6668H26.6667V9.3335C26.6667 8.27263 26.2453 7.25521 25.4952 6.50507C24.745 5.75492 23.7276 5.3335 22.6667 5.3335H9.33341C8.27255 5.3335 7.25513 5.75492 6.50499 6.50507C5.75484 7.25521 5.33341 8.27263 5.33341 9.3335V18.6668H4.00008C3.64646 18.6668 3.30732 18.8073 3.05727 19.0574C2.80722 19.3074 2.66675 19.6465 2.66675 20.0002V22.6668C2.66675 23.7277 3.08818 24.7451 3.83832 25.4953C4.58847 26.2454 5.60588 26.6668 6.66675 26.6668H25.3334C26.3943 26.6668 27.4117 26.2454 28.1618 25.4953C28.912 24.7451 29.3334 23.7277 29.3334 22.6668V20.0002C29.3334 19.6465 29.1929 19.3074 28.9429 19.0574C28.6928 18.8073 28.3537 18.6668 28.0001 18.6668ZM8.00008 9.3335C8.00008 8.97987 8.14056 8.64074 8.39061 8.39069C8.64065 8.14064 8.97979 8.00016 9.33341 8.00016H22.6667C23.0204 8.00016 23.3595 8.14064 23.6096 8.39069C23.8596 8.64074 24.0001 8.97987 24.0001 9.3335V18.6668H8.00008V9.3335ZM26.6667 22.6668C26.6667 23.0205 26.5263 23.3596 26.2762 23.6096C26.0262 23.8597 25.687 24.0002 25.3334 24.0002H6.66675C6.31313 24.0002 5.97399 23.8597 5.72394 23.6096C5.47389 23.3596 5.33341 23.0205 5.33341 22.6668V21.3335H26.6667V22.6668Z" fill="#A53DFF"/>
</svg>
